<svg width="20" height="20" viewBox="0 0 20 20" fill="none" xmlns="http://www.w3.org/2000/svg">
<path d="M13.9717 1.7998C15.4166 1.7998 16.7486 2.37871 17.7188 3.42969V3.43066C18.6767 4.46882 19.2001 5.88134 19.2002 7.4043C19.2002 8.98272 18.6091 10.4193 17.3691 11.9141C16.2661 13.2439 14.6846 14.5889 12.876 16.1289C12.2563 16.6564 11.5549 17.2538 10.8271 17.8896C10.5982 18.0897 10.3044 18.2002 10 18.2002C9.69557 18.2002 9.40185 18.0899 9.17285 17.8896C8.44679 17.2553 7.74654 16.6585 7.12793 16.1318L7.12598 16.1309L7.125 16.1299L5.81445 15.0078C4.55493 13.9173 3.45812 12.9113 2.63086 11.9141C1.391 10.4192 0.799805 8.98268 0.799805 7.4043C0.799903 5.88136 1.3234 4.4688 2.28125 3.43066V3.42969C3.25133 2.3787 4.58328 1.79984 6.02832 1.7998C7.11245 1.7998 8.10666 2.14373 8.97852 2.81738C9.3518 3.10588 9.69197 3.45021 10 3.8418C10.3081 3.45022 10.648 3.10591 11.0215 2.81738C11.8934 2.14369 12.8875 1.79981 13.9717 1.7998ZM13.9717 3.25391C13.2172 3.25391 12.5256 3.49223 11.9111 3.9668C11.3603 4.39257 10.9722 4.93495 10.7432 5.31836C10.5856 5.58169 10.3069 5.74023 10 5.74023C9.69313 5.74023 9.41436 5.58169 9.25684 5.31836V5.31738C9.02793 4.93403 8.63977 4.39248 8.08887 3.9668C7.47443 3.49222 6.78271 3.25391 6.02832 3.25391C4.99109 3.25394 4.04099 3.66594 3.34961 4.41504C2.64687 5.17664 2.254 6.2364 2.25391 7.4043C2.25391 8.62415 2.70463 9.72492 3.75098 10.9863C4.76822 12.2127 6.28557 13.506 8.06543 15.0215H8.06641L8.07129 15.0264C8.65482 15.5232 9.31194 16.0839 9.99805 16.6816C10.6884 16.0824 11.3474 15.5205 11.9326 15.0225C13.7132 13.5062 15.2314 12.2132 16.249 10.9863C17.2953 9.72489 17.7461 8.62418 17.7461 7.4043C17.746 6.2364 17.3531 5.17664 16.6504 4.41504C15.9591 3.66592 15.0088 3.25391 13.9717 3.25391Z" fill="#3D3D3D" stroke="#3D3D3D" style="fill:#3D3D3D;fill:color(display-p3 0.2375 0.2375 0.2375);fill-opacity:1;stroke:#3D3D3D;stroke:color(display-p3 0.2375 0.2375 0.2375);stroke-opacity:1;" stroke-width="0.4"/>
</svg>
