<svg width="20" height="20" viewBox="0 0 20 20" fill="none" xmlns="http://www.w3.org/2000/svg">
<path d="M14.1147 15.4026C10.5175 18.2679 5.48899 17.475 2.82549 14.1888C0.254756 11.0161 0.415532 6.43912 3.20439 3.54234C6.08599 0.549465 10.6164 0.149928 13.9005 2.60503C15.0771 3.48446 15.9558 4.60328 16.528 5.95754C17.1037 7.31968 17.2785 8.73688 17.0789 10.1985C16.8799 11.6533 16.2992 12.9497 15.3543 14.1596C15.4307 14.2096 15.5122 14.2455 15.5707 14.304C16.6095 15.338 17.6445 16.3758 18.6833 17.4098C18.9296 17.6548 19.0521 17.9403 18.979 18.2842C18.834 18.9686 18.0189 19.2327 17.4961 18.763C17.251 18.5432 17.0255 18.301 16.7928 18.0684C15.9395 17.2159 15.0867 16.3629 14.2333 15.5105C14.1979 15.4768 14.1608 15.4453 14.1147 15.4026ZM15.3638 9.08809C15.3728 5.6142 12.5671 2.80564 9.08397 2.80058C5.61041 2.79553 2.80694 5.58161 2.79176 9.05325C2.77659 12.5356 5.57668 15.352 9.07048 15.3683C12.53 15.3846 15.3548 12.5654 15.3638 9.08809Z" fill="#3D3D3D" style="fill:#3D3D3D;fill:color(display-p3 0.2375 0.2375 0.2375);fill-opacity:1;"/>
</svg>
