<svg xmlns="http://www.w3.org/2000/svg">
<defs>
<symbol id="icon-arrow_down" viewBox="0 0 32 32">
<path stroke-linejoin="round" stroke-linecap="round" stroke-miterlimit="4" stroke-width="3" d="M25.333 11.333l-9.333 9.333-9.333-9.333"></path>
</symbol>
<symbol id="icon-arrow_left" viewBox="0 0 32 32">
<path d="M24.932 28.973c0.746 0.69 0.749 1.812 0.006 2.505-0.676 0.63-1.735 0.689-2.483 0.176l-0.214-0.171-15.385-14.227c-0.681-0.629-0.743-1.617-0.186-2.311l0.186-0.199 15.385-14.23c0.746-0.69 1.954-0.688 2.697 0.005 0.676 0.63 0.735 1.614 0.18 2.307l-0.185 0.198-14.028 12.975 14.027 12.972z"></path>
</symbol>
<symbol id="icon-arrow_right_black" viewBox="0 0 32 32">
<path d="M5.333 15.634c0-0.506 0.376-0.925 0.864-0.991l0.136-0.009h20c0.552 0 1 0.448 1 1 0 0.506-0.376 0.925-0.864 0.991l-0.136 0.009h-20c-0.552 0-1-0.448-1-1z"></path>
<path d="M17.561 8.31c-0.391-0.39-0.393-1.023-0.003-1.414 0.354-0.356 0.91-0.389 1.302-0.1l0.112 0.097 8.067 8.032c0.357 0.355 0.389 0.913 0.097 1.305l-0.097 0.112-8.067 8.033c-0.391 0.39-1.024 0.388-1.414-0.003-0.354-0.356-0.385-0.911-0.094-1.302l0.097-0.112 7.355-7.325-7.355-7.323z"></path>
</symbol>
<symbol id="icon-arrow_right" viewBox="0 0 32 32">
<path stroke-linejoin="round" stroke-linecap="round" stroke-miterlimit="4" stroke-width="2.6667" d="M26.334 15.634h-20"></path>
<path stroke-linejoin="round" stroke-linecap="round" stroke-miterlimit="4" stroke-width="2.6667" d="M18.266 7.602c0 0 8.067 4.348 8.067 8.031 0 3.685-8.067 8.035-8.067 8.035"></path>
</symbol>
<symbol id="icon-login" viewBox="0 0 32 32">
<path stroke-linejoin="round" stroke-linecap="round" stroke-miterlimit="4" stroke-width="2.4" d="M29.055 16.161h-16.055"></path>
<path stroke-linejoin="round" stroke-linecap="round" stroke-miterlimit="4" stroke-width="2.4" d="M25.152 12.273l3.904 3.888-3.904 3.888"></path>
<path stroke-linejoin="round" stroke-linecap="round" stroke-miterlimit="4" stroke-width="2.4" d="M21.813 10.173c-0.44-4.773-2.227-6.507-9.333-6.507-9.468 0-9.468 3.080-9.468 12.333s0 12.333 9.468 12.333c7.107 0 8.893-1.733 9.333-6.507"></path>
</symbol>
<symbol id="icon-heart" viewBox="0 0 32 32">
<path stroke-linejoin="miter" stroke-linecap="butt" stroke-miterlimit="4" stroke-width="0.64" d="M22.355 2.88c2.312 0 4.443 0.926 5.995 2.608v0.002c1.533 1.661 2.37 3.921 2.37 6.358 0 2.525-0.946 4.824-2.93 7.216-1.765 2.128-4.295 4.28-7.189 6.744-0.992 0.844-2.114 1.8-3.278 2.817-0.366 0.32-0.836 0.497-1.323 0.497s-0.957-0.176-1.323-0.497c-1.162-1.015-2.282-1.97-3.272-2.812l-0.003-0.001-0.002-0.002-2.097-1.795c-2.015-1.745-3.77-3.354-5.094-4.95-1.984-2.392-2.93-4.69-2.93-7.216 0-2.437 0.838-4.697 2.37-6.358v-0.002c1.552-1.682 3.683-2.608 5.995-2.608 1.735 0 3.325 0.55 4.72 1.628 0.597 0.462 1.142 1.013 1.634 1.639 0.493-0.627 1.037-1.177 1.634-1.639 1.395-1.078 2.986-1.628 4.72-1.628zM22.355 5.206c-1.207 0-2.314 0.381-3.297 1.141-0.881 0.681-1.502 1.549-1.869 2.163-0.252 0.421-0.698 0.675-1.189 0.675s-0.937-0.254-1.189-0.675v-0.002c-0.366-0.613-0.987-1.48-1.869-2.161-0.983-0.759-2.090-1.141-3.297-1.141-1.66 0-3.18 0.659-4.286 1.858-1.124 1.219-1.753 2.914-1.753 4.783 0 1.952 0.721 3.713 2.395 5.731 1.628 1.962 4.055 4.032 6.903 6.456h0.002l0.008 0.008c0.934 0.795 1.985 1.692 3.083 2.648 1.105-0.959 2.159-1.858 3.095-2.655 2.849-2.426 5.278-4.495 6.906-6.458 1.674-2.018 2.395-3.779 2.395-5.731-0-1.869-0.629-3.564-1.753-4.783-1.106-1.199-2.627-1.858-4.286-1.858z"></path>
</symbol>
<symbol id="icon-eye" viewBox="0 0 32 32">
<path stroke-linejoin="round" stroke-linecap="round" stroke-miterlimit="4" stroke-width="2.4" d="M8.56 23.64c-2.973-1.947-4.893-4.88-4.893-7.453 0-4.373 5.52-9.733 12.333-9.733 2.787 0 5.373 0.893 7.453 2.28"></path>
<path stroke-linejoin="round" stroke-linecap="round" stroke-miterlimit="4" stroke-width="2.4" d="M26.466 11.48c1.188 1.507 1.88 3.173 1.88 4.707 0 4.373-5.533 9.733-12.347 9.733-1.213 0-2.399-0.173-3.507-0.48"></path>
<path stroke-linejoin="round" stroke-linecap="round" stroke-miterlimit="4" stroke-width="2.4" d="M13.021 19.156c-0.793-0.785-1.237-1.856-1.233-2.972-0.005-2.327 1.877-4.217 4.205-4.221 1.12-0.003 2.195 0.441 2.987 1.233"></path>
<path stroke-linejoin="round" stroke-linecap="round" stroke-miterlimit="4" stroke-width="2.4" d="M20.146 16.932c-0.312 1.723-1.66 3.073-3.383 3.389"></path>
<path stroke-linejoin="round" stroke-linecap="round" stroke-miterlimit="4" stroke-width="2.4" d="M26.522 5.667l-21.032 21.032"></path>
</symbol>
<symbol id="icon-message" viewBox="0 0 32 32">
<path stroke-linejoin="round" stroke-linecap="round" stroke-miterlimit="4" stroke-width="2.4" d="M23.393 12.025c0 0-4.28 5.137-7.411 5.137-3.129 0-7.457-5.137-7.457-5.137"></path>
<path stroke-linejoin="round" stroke-linecap="round" stroke-miterlimit="4" stroke-width="2.4" d="M3.269 15.958c0-9.117 3.175-12.156 12.698-12.156s12.698 3.038 12.698 12.156c0 9.116-3.175 12.156-12.698 12.156s-12.698-3.040-12.698-12.156z"></path>
</symbol>
<symbol id="icon-phone" viewBox="0 0 32 32">
<path stroke-linejoin="round" stroke-linecap="round" stroke-miterlimit="4" stroke-width="2.4" d="M19.137 3.667c4.935 0.548 8.833 4.441 9.388 9.376"></path>
<path stroke-linejoin="round" stroke-linecap="round" stroke-miterlimit="4" stroke-width="2.4" d="M19.137 8.391c2.361 0.459 4.207 2.305 4.667 4.667"></path>
<path stroke-linejoin="round" stroke-linecap="round" stroke-miterlimit="4" stroke-width="2.4" d="M10.267 21.732c-9.197-9.198-7.889-13.41-6.92-14.768 0.125-0.219 3.195-4.815 6.485-2.119 8.168 6.727-2.173 5.776 4.686 12.636 6.86 6.859 5.908-3.482 12.635 4.685 2.696 3.292-1.9 6.362-2.117 6.485-1.357 0.971-5.571 2.279-14.77-6.92z"></path>
</symbol>
<symbol id="icon-pin" viewBox="0 0 32 32">
<path stroke-linejoin="round" stroke-linecap="round" stroke-miterlimit="4" stroke-width="2.4" d="M19.347 14.281c0-1.842-1.492-3.334-3.334-3.334-1.84 0-3.333 1.492-3.333 3.334 0 1.84 1.492 3.333 3.333 3.333 1.842 0 3.334-1.492 3.334-3.333z"></path>
<path stroke-linejoin="round" stroke-linecap="round" stroke-miterlimit="4" stroke-width="2.4" d="M15.999 28c-3.864 0-9.999-6.722-9.999-13.868 0-5.595 4.476-10.132 9.999-10.132s10.001 4.537 10.001 10.132c0 7.147-6.135 13.868-10.001 13.868z"></path>
</symbol>
<symbol id="icon-search" viewBox="0 0 32 32">
<path d="M22.584 24.644c-5.756 4.584-13.801 3.316-18.063-1.942-4.113-5.076-3.856-12.399 0.606-17.034 4.611-4.789 11.859-5.428 17.114-1.5 1.883 1.407 3.288 3.197 4.204 5.364 0.921 2.179 1.201 4.447 0.881 6.786-0.318 2.328-1.248 4.402-2.759 6.338 0.122 0.080 0.253 0.137 0.346 0.231 1.662 1.654 3.318 3.315 4.98 4.969 0.394 0.392 0.59 0.849 0.473 1.399-0.232 1.095-1.536 1.518-2.373 0.766-0.392-0.352-0.753-0.739-1.125-1.111-1.365-1.364-2.73-2.729-4.095-4.093-0.057-0.054-0.116-0.104-0.19-0.173zM24.582 14.541c0.014-5.558-4.475-10.052-10.048-10.060-5.558-0.008-10.043 4.45-10.068 10.004-0.024 5.572 4.456 10.078 10.046 10.104 5.535 0.026 10.055-4.485 10.069-10.048z"></path>
</symbol>
<symbol id="icon-shopping" viewBox="0 0 32 32">
<path d="M22.87 27h-9.685c-4.135 0-7.499-3.364-7.499-7.499v-7.686c0-3.844-1.916-7.401-5.125-9.517-0.576-0.38-0.735-1.155-0.355-1.731s1.155-0.736 1.731-0.355c1.832 1.208 3.318 2.801 4.381 4.635 0.23 0.257 2.081 2.22 5.117 2.22h14.392c3.926-0.073 7 3.867 5.973 7.657l-1.657 6.603c-0.838 3.341-3.829 5.674-7.273 5.674v0zM7.871 8.86c0.208 0.96 0.315 1.95 0.315 2.956v7.686c0 2.757 2.243 4.999 4.999 4.999h9.685c2.296 0 4.29-1.556 4.849-3.783l1.657-6.603c0.61-2.252-1.216-4.593-3.549-4.549h-14.392c-1.373 0-2.568-0.296-3.565-0.706v0zM12.56 30.437c0-0.863-0.699-1.562-1.562-1.562-2.073 0.082-2.071 3.043 0 3.124 0.863 0 1.562-0.699 1.562-1.562zM24.996 30.437c0-0.863-0.699-1.562-1.562-1.562-2.073 0.082-2.071 3.043 0 3.124 0.863 0 1.562-0.699 1.562-1.562zM27.077 13.315c0-0.69-0.56-1.25-1.25-1.25h-13.892c-1.658 0.066-1.657 2.434 0 2.5h13.892c0.69 0 1.25-0.56 1.25-1.25z"></path>
</symbol>
<symbol id="icon-youtube" viewBox="0 0 43 32">
<path d="M34.664 10.126l0.006 0.002c0 0-0.001-0-0.003-0.001-0.001-0-0.002-0.001-0.003-0.001zM9.884 9.959c5.927-0.368 16.969-0.368 22.896 0l0.002 0.017c0.143 1.446 0.2 3.376 0.2 6.068 0 2.659-0.056 4.589-0.196 6.048-6.052 0.241-16.852 0.241-22.906 0-0.141-1.444-0.198-3.368-0.198-6.048 0-2.692 0.058-4.622 0.2-6.068l0.002-0.017zM34.839 21.968c0 0-0.004 0.001-0.012 0.003l0.012-0.003zM7.995 21.96l0.006 0.002c-0.004-0.001-0.006-0.002-0.006-0.002zM0 16.044c0 11.022 0.889 15.11 7.822 15.644 6.4 0.356 20.621 0.356 27.021 0 6.933-0.355 7.822-4.622 7.822-15.644s-0.889-15.11-7.822-15.644c-6.4-0.533-20.621-0.533-27.021 0-6.933 0.533-7.822 4.622-7.822 15.644zM7.995 10.127c-0-0 0.002-0.001 0.006-0.002l-0.006 0.002zM22.36 19.975c-2.922 1.461-6.36-0.664-6.36-3.931s3.438-5.392 6.36-3.931c3.239 1.62 3.239 6.242 0 7.861z"></path>
</symbol>
</defs>
</svg>
